<?xml version="1.0" encoding="UTF-8"?>
<svg id="Layer_1" xmlns="http://www.w3.org/2000/svg" version="1.1" viewBox="0 0 28 28">
  <!-- Generator: Adobe Illustrator 30.0.0, SVG Export Plug-In . SVG Version: 2.1.1 Build 123)  -->
  <defs>
    <style>
      .st0 {
        fill: #33a753;
      }

      .st1 {
        fill: #e84236;
      }

      .st2 {
        fill: #4284f3;
      }

      .st3 {
        fill: #f9b600;
      }
    </style>
  </defs>
  <path class="st2" d="M22.96,24.38c2.76-2.55,4.5-6.25,4.5-10.38,0-.93-.09-1.83-.26-2.71h-12.76v5.65h7.4c-.57,1.63-1.6,3.02-2.92,4.03l4.04,3.41Z"/>
  <path class="st0" d="M18.93,20.96c-1.38,1.05-3.08,1.66-4.93,1.66-3.67,0-6.78-2.44-7.91-5.83l-4.26,3.17c2.16,4.69,6.8,7.93,12.16,7.93,3.44,0,6.58-1.33,8.96-3.53l-4.04-3.41Z"/>
  <path class="st3" d="M1.84,19.98c-.84-1.81-1.3-3.84-1.3-5.98s.49-4.26,1.36-6.1l4.24,3.19c-.32.91-.49,1.89-.49,2.91s.16,1.92.45,2.8l-4.26,3.17Z"/>
  <path class="st1" d="M1.89,7.9C4.08,3.28,8.68.1,14,.1c3.69,0,7.03,1.53,9.46,4.01l-3.79,3.57c-1.49-1.43-3.48-2.31-5.67-2.31-3.63,0-6.71,2.38-7.87,5.72L1.89,7.9Z"/>
</svg>