<?xml version="1.0" encoding="UTF-8"?>
<svg id="Layer_1" data-name="Layer 1" xmlns="http://www.w3.org/2000/svg" viewBox="0 0 201.9 47.28">
  <defs>
    <style>
      .cls-1 {
        fill: #ed0006;
      }

      .cls-2 {
        fill: #fff;
      }
    </style>
  </defs>
  <path class="cls-1" d="M0,46.68V11.81h23.17v6.03H7.47v8.47h12.36v5.83H7.47v14.55H0Z"/>
  <path class="cls-2" d="M42.8,47.28c-3.42,0-6.43-.76-9.02-2.29-2.59-1.53-4.63-3.65-6.1-6.35-1.48-2.71-2.22-5.84-2.22-9.39s.74-6.68,2.22-9.39c1.48-2.71,3.51-4.82,6.1-6.35,2.59-1.53,5.6-2.29,9.02-2.29s6.44.76,9.04,2.29c2.61,1.53,4.65,3.65,6.13,6.35,1.48,2.71,2.22,5.84,2.22,9.39s-.74,6.69-2.22,9.39c-1.48,2.71-3.52,4.83-6.13,6.35-2.61,1.53-5.62,2.29-9.04,2.29ZM42.8,40.56c2.03,0,3.76-.46,5.21-1.4,1.45-.93,2.57-2.23,3.36-3.91.8-1.68,1.2-3.68,1.2-6s-.4-4.33-1.2-6c-.8-1.68-1.92-2.97-3.36-3.89-1.45-.91-3.18-1.37-5.21-1.37s-3.67.46-5.13,1.37c-1.46.91-2.59,2.21-3.39,3.89-.8,1.68-1.2,3.68-1.2,6s.4,4.33,1.2,6c.8,1.68,1.93,2.98,3.39,3.91,1.46.93,3.17,1.4,5.13,1.4Z"/>
  <path class="cls-2" d="M71.35,46.68v-28.85h-10.11v-6.03h27.75v6.03h-10.11v28.85h-7.52Z"/>
  <path class="cls-2" d="M107.38,47.28c-3.42,0-6.43-.76-9.02-2.29-2.59-1.53-4.63-3.65-6.1-6.35-1.48-2.71-2.22-5.84-2.22-9.39s.74-6.68,2.22-9.39c1.48-2.71,3.51-4.82,6.1-6.35,2.59-1.53,5.6-2.29,9.02-2.29s6.44.76,9.04,2.29c2.61,1.53,4.65,3.65,6.13,6.35,1.48,2.71,2.22,5.84,2.22,9.39s-.74,6.69-2.22,9.39c-1.48,2.71-3.52,4.83-6.13,6.35-2.61,1.53-5.62,2.29-9.04,2.29ZM107.38,40.56c2.03,0,3.76-.46,5.21-1.4,1.45-.93,2.57-2.23,3.36-3.91.8-1.68,1.2-3.68,1.2-6s-.4-4.33-1.2-6c-.8-1.68-1.92-2.97-3.36-3.89-1.44-.91-3.18-1.37-5.21-1.37s-3.67.46-5.13,1.37c-1.46.91-2.59,2.21-3.39,3.89-.8,1.68-1.2,3.68-1.2,6s.4,4.33,1.2,6c.8,1.68,1.93,2.98,3.39,3.91,1.46.93,3.17,1.4,5.13,1.4Z"/>
  <path class="cls-2" d="M128.8,46.68V11.81h7.47v29.1h15.05v5.78h-22.52Z"/>
  <path class="cls-2" d="M155.6,46.68V11.81h7.47v34.88h-7.47Z"/>
  <path class="cls-2" d="M184.51,47.28c-3.42,0-6.43-.76-9.02-2.29-2.59-1.53-4.63-3.65-6.1-6.35-1.48-2.71-2.22-5.84-2.22-9.39s.74-6.68,2.22-9.39c1.48-2.71,3.51-4.82,6.1-6.35,2.59-1.53,5.6-2.29,9.02-2.29s6.44.76,9.04,2.29c2.61,1.53,4.65,3.65,6.13,6.35,1.48,2.71,2.22,5.84,2.22,9.39s-.74,6.69-2.22,9.39c-1.48,2.71-3.52,4.83-6.13,6.35-2.61,1.53-5.62,2.29-9.04,2.29ZM184.51,40.56c2.03,0,3.76-.46,5.21-1.4,1.45-.93,2.57-2.23,3.36-3.91.8-1.68,1.2-3.68,1.2-6s-.4-4.33-1.2-6c-.8-1.68-1.92-2.97-3.36-3.89-1.45-.91-3.18-1.37-5.21-1.37s-3.67.46-5.13,1.37c-1.46.91-2.59,2.21-3.39,3.89-.8,1.68-1.2,3.68-1.2,6s.4,4.33,1.2,6c.8,1.68,1.93,2.98,3.39,3.91,1.46.93,3.17,1.4,5.13,1.4Z"/>
  <circle class="cls-1" cx="159.34" cy="4.84" r="4.84"/>
</svg>